<svg width="23" height="19" viewBox="0 0 23 19" fill="none" xmlns="http://www.w3.org/2000/svg">
<path d="M4 6.99998C4.26522 6.99998 4.51957 7.10534 4.70711 7.29288C4.89464 7.48041 5 7.73477 5 7.99998C6.57114 7.99767 8.09698 8.52625 9.33 9.49998H11.5C12.833 9.49998 14.03 10.08 14.854 11H18C18.9453 10.9997 19.8712 11.2674 20.6705 11.772C21.4698 12.2766 22.1097 12.9975 22.516 13.851C20.151 16.972 16.322 19 12 19C9.21 19 6.85 18.397 4.94 17.342C4.87004 17.535 4.74224 17.7018 4.57402 17.8196C4.40579 17.9373 4.20534 18.0003 4 18H1C0.734784 18 0.48043 17.8946 0.292893 17.7071C0.105357 17.5196 0 17.2652 0 17V7.99998C0 7.73477 0.105357 7.48041 0.292893 7.29288C0.48043 7.10534 0.734784 6.99998 1 6.99998H4ZM5.001 9.99998L5 15.022L5.045 15.054C6.84 16.314 9.178 17 12 17C15.004 17 17.799 15.844 19.835 13.87L19.968 13.737L19.848 13.637C19.3758 13.2672 18.8034 13.0477 18.205 13.007L18 13H15.889C15.961 13.322 16 13.656 16 14V15H7V13L13.79 12.999L13.756 12.921C13.5644 12.5205 13.2696 12.1783 12.9019 11.9294C12.5343 11.6806 12.107 11.5341 11.664 11.505L11.5 11.5H8.57C8.10531 11.0247 7.55027 10.6472 6.93752 10.3896C6.32477 10.132 5.66669 9.99951 5.002 9.99998H5.001ZM3 8.99998H2V16H3V8.99998ZM17 2.99998C17.7956 2.99998 18.5587 3.31606 19.1213 3.87866C19.6839 4.44127 20 5.20434 20 5.99998C20 6.79563 19.6839 7.5587 19.1213 8.12131C18.5587 8.68391 17.7956 8.99998 17 8.99998C16.2044 8.99998 15.4413 8.68391 14.8787 8.12131C14.3161 7.5587 14 6.79563 14 5.99998C14 5.20434 14.3161 4.44127 14.8787 3.87866C15.4413 3.31606 16.2044 2.99998 17 2.99998ZM17 4.99998C16.7348 4.99998 16.4804 5.10534 16.2929 5.29288C16.1054 5.48041 16 5.73477 16 5.99998C16 6.2652 16.1054 6.51956 16.2929 6.70709C16.4804 6.89463 16.7348 6.99998 17 6.99998C17.2652 6.99998 17.5196 6.89463 17.7071 6.70709C17.8946 6.51956 18 6.2652 18 5.99998C18 5.73477 17.8946 5.48041 17.7071 5.29288C17.5196 5.10534 17.2652 4.99998 17 4.99998ZM10 -1.52588e-05C10.7956 -1.52588e-05 11.5587 0.316055 12.1213 0.878664C12.6839 1.44127 13 2.20434 13 2.99998C13 3.79563 12.6839 4.5587 12.1213 5.1213C11.5587 5.68391 10.7956 5.99998 10 5.99998C9.20435 5.99998 8.44129 5.68391 7.87868 5.1213C7.31607 4.5587 7 3.79563 7 2.99998C7 2.20434 7.31607 1.44127 7.87868 0.878664C8.44129 0.316055 9.20435 -1.52588e-05 10 -1.52588e-05ZM10 1.99998C9.73478 1.99998 9.48043 2.10534 9.29289 2.29288C9.10536 2.48041 9 2.73477 9 2.99998C9 3.2652 9.10536 3.51955 9.29289 3.70709C9.48043 3.89463 9.73478 3.99998 10 3.99998C10.2652 3.99998 10.5196 3.89463 10.7071 3.70709C10.8946 3.51955 11 3.2652 11 2.99998C11 2.73477 10.8946 2.48041 10.7071 2.29288C10.5196 2.10534 10.2652 1.99998 10 1.99998Z" fill="#E33319"/>
</svg>
