<svg width="32" height="32" viewBox="0 0 32 32" fill="none" xmlns="http://www.w3.org/2000/svg">
<circle cx="16" cy="16" r="16" fill="#0033AD"/>
<path d="M15.7477 6.53244C16.1961 6.29865 16.7434 6.84102 16.5052 7.28896C16.3668 7.65411 15.8422 7.7512 15.5743 7.47287C15.2904 7.20575 15.383 6.67778 15.7477 6.53244ZM10.9252 7.05229C11.1976 6.94017 11.5424 7.1897 11.5146 7.48655C11.5435 7.8088 11.1495 8.04599 10.8719 7.89284C10.504 7.75038 10.5461 7.15329 10.9252 7.05229ZM20.8022 7.90189C20.3766 7.85046 20.3092 7.18127 20.719 7.04653C21.0368 6.89152 21.3284 7.1822 21.3749 7.48346C21.3083 7.74071 21.0929 7.97626 20.8022 7.90189ZM12.0225 9.10481C12.4779 8.81681 13.1276 9.24572 13.0576 9.77462C13.0339 10.3087 12.3246 10.618 11.9244 10.257C11.5374 9.97344 11.5961 9.32287 12.0225 9.10481ZM18.9737 9.4104C19.1769 8.88685 20 8.87101 20.2313 9.38067C20.4598 9.77729 20.1787 10.2684 19.7715 10.4033C19.2321 10.504 18.7198 9.92088 18.9737 9.4104ZM15.167 10.3736C15.1626 9.92355 15.5724 9.58824 16.0001 9.55759C16.2838 9.61447 16.593 9.73532 16.7147 10.0216C16.9415 10.4164 16.7401 10.9602 16.3303 11.1414C16.1429 11.2464 15.9213 11.207 15.7173 11.1948C15.4053 11.0416 15.1426 10.7413 15.167 10.3736ZM7.99524 11.0293C8.4112 10.7736 8.97239 11.2402 8.81491 11.6921C8.7282 12.0829 8.20281 12.242 7.90246 11.9924C7.58186 11.7586 7.63267 11.1965 7.99524 11.0293ZM23.3956 11.0284C23.7485 10.7544 24.3309 11.0688 24.2888 11.5143C24.3124 11.9206 23.809 12.227 23.4586 12.0178C23.0728 11.8444 23.0334 11.2508 23.3956 11.0284ZM17.1838 11.8374C17.7662 11.6282 18.4579 11.8786 18.7898 12.3978C19.2277 13.0325 18.9947 13.9992 18.3152 14.3634C17.6112 14.7942 16.5831 14.429 16.3231 13.6428C16.0279 12.9389 16.4579 12.0581 17.1838 11.8374ZM13.7669 11.9066C14.4123 11.602 15.2809 11.8576 15.5927 12.5178C15.9596 13.1605 15.6759 14.0553 15.02 14.3872C14.3632 14.7601 13.4367 14.4774 13.1189 13.7874C12.7625 13.1202 13.079 12.2139 13.7669 11.9066ZM10.3455 13.0763C10.3946 12.6605 10.7869 12.3899 11.1827 12.3619C11.6091 12.4133 11.9498 12.7445 11.9962 13.1761C11.9682 13.6034 11.638 14.021 11.1853 14.0184C10.6871 14.0613 10.2504 13.5657 10.3455 13.0763ZM20.4511 12.4523C20.9625 12.1546 21.6726 12.588 21.6499 13.1755C21.685 13.798 20.899 14.2367 20.3898 13.8715C19.8608 13.5675 19.902 12.7112 20.4511 12.4523ZM12.3764 14.6463C12.9745 14.4817 13.6584 14.7636 13.9517 15.3134C14.273 15.8668 14.1417 16.6355 13.6426 17.0414C13.0025 17.6367 11.8221 17.3977 11.4814 16.5852C11.0899 15.8404 11.5654 14.8423 12.3764 14.6463ZM18.8573 14.6432C19.4388 14.4768 20.1218 14.701 20.4344 15.2307C20.8477 15.8365 20.6504 16.7401 20.0351 17.1307C19.3906 17.5842 18.3923 17.3461 18.0376 16.637C17.6077 15.9035 18.0403 14.8669 18.8573 14.6432ZM8.52938 15.3344C9.04603 15.1389 9.61874 15.7091 9.40943 16.2213C9.28157 16.688 8.6239 16.8605 8.28417 16.5164C7.88662 16.1933 8.03381 15.4745 8.52938 15.3344ZM22.5334 16.0777C22.5185 15.6496 22.8317 15.2705 23.2707 15.2468C23.6245 15.3029 23.9686 15.5883 23.9406 15.9735C23.973 16.4823 23.36 16.8281 22.9265 16.589C22.7234 16.4858 22.6192 16.2774 22.5334 16.0777ZM5.989 15.5857C6.29984 15.45 6.68432 15.7194 6.61335 16.0646C6.59669 16.4554 6.01966 16.6057 5.80767 16.2791C5.62036 16.0523 5.73248 15.7026 5.989 15.5857ZM25.5878 15.5778C25.8067 15.422 26.1578 15.534 26.2445 15.7897C26.3916 16.069 26.1219 16.4516 25.8076 16.4044C25.3663 16.4446 25.2236 15.7721 25.5878 15.5778ZM14.0647 17.4541C14.8826 17.2413 15.7618 17.9234 15.7669 18.7656C15.8203 19.6166 14.9544 20.3713 14.1171 20.1747C13.4699 20.0705 12.9621 19.4471 12.9831 18.7932C12.9814 18.1677 13.4534 17.5863 14.0647 17.4541ZM17.3038 17.4523C18.134 17.2203 19.0395 17.9145 19.0263 18.7762C19.0701 19.6115 18.2312 20.3408 17.4114 20.175C16.64 20.0753 16.0708 19.2277 16.2862 18.4791C16.3949 17.9803 16.8117 17.5746 17.3038 17.4523ZM11.0584 17.9707C11.6329 17.8727 12.1715 18.5136 11.9385 19.059C11.7686 19.6403 10.9227 19.798 10.5487 19.3232C10.11 18.8672 10.4375 18.0337 11.0584 17.9707ZM20.5578 17.9963C21.0701 17.7818 21.6988 18.2249 21.6594 18.7808C21.68 19.3928 20.9037 19.8148 20.4028 19.4576C19.8355 19.1369 19.9387 18.1931 20.5578 17.9963ZM23.213 20.6595C23.0124 20.2856 23.3768 19.7901 23.7919 19.8593C23.9985 19.8558 24.143 20.0186 24.2753 20.1552C24.3025 20.3768 24.348 20.6411 24.1641 20.8118C23.9144 21.1279 23.3487 21.0377 23.213 20.6595ZM7.99349 19.9634C8.38147 19.7051 8.93978 20.0903 8.85256 20.5439C8.80617 20.945 8.30083 21.1743 7.96798 20.9467C7.61076 20.74 7.62392 20.1517 7.99349 19.9634ZM15.6584 20.8031C16.1663 20.579 16.8134 21.0212 16.7653 21.5806C16.8029 22.1988 16.0026 22.6269 15.506 22.2556C14.9544 21.9369 15.0463 20.9991 15.6584 20.8031ZM12.1083 21.6313C12.5409 21.4037 13.1214 21.7968 13.0821 22.281C13.0952 22.6785 12.7072 23.0173 12.3149 22.9586C11.99 22.9516 11.7781 22.6603 11.6739 22.3833C11.6793 22.0814 11.8035 21.7452 12.1083 21.6313ZM19.2995 21.6383C19.7443 21.3634 20.3766 21.7582 20.3345 22.276C20.346 22.8171 19.6314 23.1638 19.2172 22.8083C18.8162 22.5297 18.8651 21.8599 19.2995 21.6383ZM20.55 24.7299C20.3521 24.4305 20.5851 24.0697 20.9064 24.0014C21.1648 24.054 21.438 24.2483 21.3837 24.5478C21.346 24.9532 20.7532 25.0775 20.55 24.7299ZM10.6231 24.4699C10.7019 24.2326 10.8928 23.9967 11.1722 24.0584C11.5794 24.0873 11.7003 24.7011 11.3439 24.8902C11.0234 25.1063 10.6515 24.8104 10.6231 24.4699ZM15.4123 24.7421C15.4903 24.3911 15.9447 24.2203 16.2442 24.4068C16.4421 24.4918 16.4999 24.7132 16.5507 24.9015C16.5236 24.9995 16.4993 25.0976 16.4754 25.1956C16.3528 25.341 16.1952 25.4863 15.9912 25.4811C15.6119 25.5255 15.2698 25.0968 15.4123 24.7421Z" fill="white"/>
</svg>
