<svg width="32" height="32" viewBox="0 0 32 32" fill="none" xmlns="http://www.w3.org/2000/svg">
<path d="M13.1906 26.5263C17.4095 26.5263 20.8295 23.0703 20.8295 18.807C20.8295 14.5437 17.4095 11.0877 13.1906 11.0877C8.9717 11.0877 5.5517 14.5437 5.5517 18.807C5.5517 23.0703 8.9717 26.5263 13.1906 26.5263ZM13.1906 29.3333C7.43781 29.3333 2.77393 24.6203 2.77393 18.807C2.77393 12.9936 7.43781 8.28064 13.1906 8.28064C18.9434 8.28064 23.6073 12.9936 23.6073 18.807C23.6073 24.6203 18.9434 29.3333 13.1906 29.3333Z" fill="#FBCC5C"/>
<path d="M18.7463 20.9122C22.9651 20.9122 26.3851 17.4562 26.3851 13.1929C26.3851 8.92964 22.9651 5.47364 18.7463 5.47364C14.5274 5.47364 11.1074 8.92964 11.1074 13.1929C11.1074 17.4562 14.5274 20.9122 18.7463 20.9122ZM18.7463 23.7193C12.9935 23.7193 8.32959 19.0063 8.32959 13.1929C8.32959 7.37961 12.9935 2.66663 18.7463 2.66663C24.499 2.66663 29.1629 7.37961 29.1629 13.1929C29.1629 19.0063 24.499 23.7193 18.7463 23.7193Z" fill="#35D07F"/>
<path d="M19.088 23.7136C19.8099 22.8297 20.3274 21.7939 20.6025 20.682C21.7027 20.4041 22.7277 19.8813 23.6025 19.1519C23.5626 20.4393 23.2882 21.7082 22.793 22.8951C21.6184 23.3957 20.3625 23.6732 19.0883 23.7136H19.088ZM11.335 11.3173C10.2347 11.5952 9.20975 12.118 8.33496 12.8474C8.37485 11.56 8.64925 10.2911 9.14441 9.10422C10.3191 8.60378 11.575 8.32649 12.8491 8.28625C12.1274 9.17009 11.6101 10.2056 11.335 11.3173Z" fill="#5EA33B"/>
</svg>
