<svg width="32" height="32" viewBox="0 0 32 32" fill="none" xmlns="http://www.w3.org/2000/svg">
<path d="M14.5651 14.565C15.5082 14.7959 16.4932 14.7959 17.4364 14.565C17.6999 13.4932 18.2518 12.514 19.0323 11.7335C19.8127 10.9531 20.7919 10.4012 21.8637 10.1376C22.0809 9.24913 22.0934 8.32291 21.9002 7.42891C21.707 6.53491 21.3131 5.69651 20.7484 4.97704C20.1836 4.25758 19.4628 3.67586 18.6402 3.27585C17.8177 2.87583 16.915 2.66797 16.0004 2.66797C15.0858 2.66797 14.1831 2.87583 13.3605 3.27585C12.538 3.67586 11.8171 4.25758 11.2524 4.97704C10.6876 5.69651 10.2938 6.53491 10.1006 7.42891C9.90736 8.32291 9.91984 9.24913 10.1371 10.1376C11.2091 10.4009 12.1885 10.9527 12.9691 11.7331C13.7497 12.5136 14.3017 13.493 14.5651 14.565Z" fill="#7ABDF7"/>
<path d="M17.4362 17.4352C16.493 17.2042 15.5081 17.2042 14.5649 17.4352C14.3014 18.507 13.7494 19.4862 12.969 20.2666C12.1885 21.047 11.2093 21.599 10.1376 21.8625C9.92033 22.751 9.90785 23.6772 10.1011 24.5712C10.2943 25.4652 10.6881 26.3036 11.2529 27.0231C11.8176 27.7425 12.5385 28.3243 13.361 28.7243C14.1836 29.1243 15.0862 29.3322 16.0009 29.3322C16.9155 29.3322 17.8182 29.1243 18.6407 28.7243C19.4633 28.3243 20.1841 27.7425 20.7489 27.0231C21.3136 26.3036 21.7075 25.4652 21.9007 24.5712C22.0939 23.6772 22.0814 22.751 21.8642 21.8625C20.7922 21.5993 19.8128 21.0475 19.0321 20.267C18.2515 19.4865 17.6996 18.5071 17.4362 17.4352Z" fill="#0D74F5"/>
<path d="M23.299 9.96398C22.8155 9.96391 22.3337 10.022 21.8641 10.137C21.6008 11.2088 21.049 12.1879 20.2687 12.9683C19.4883 13.7487 18.5091 14.3004 17.4374 14.5637C17.2064 15.5069 17.2064 16.4918 17.4374 17.435C18.5091 17.6984 19.4883 18.2503 20.2687 19.0308C21.049 19.8113 21.6008 20.7905 21.8641 21.8623C22.6931 22.0648 23.5557 22.0892 24.3949 21.9339C25.234 21.7786 26.0307 21.4471 26.7324 20.9612C27.434 20.4754 28.0247 19.8463 28.4654 19.1155C28.906 18.3846 29.1867 17.5686 29.2889 16.7213C29.3911 15.874 29.3124 15.0147 29.0581 14.2C28.8038 13.3854 28.3796 12.6339 27.8136 11.9952C27.2475 11.3565 26.5525 10.8451 25.7743 10.4948C24.9961 10.1444 24.1525 9.96303 23.299 9.96265V9.96398Z" fill="#4494F7"/>
<path d="M14.565 17.435C14.7959 16.4919 14.7959 15.5069 14.565 14.5638C13.4932 14.3005 12.5139 13.7487 11.7334 12.9683C10.953 12.188 10.4011 11.2088 10.1376 10.1371C9.24914 9.91984 8.32291 9.90736 7.42891 10.1006C6.53491 10.2938 5.69651 10.6876 4.97704 11.2524C4.25758 11.8171 3.67586 12.538 3.27585 13.3605C2.87583 14.1831 2.66797 15.0857 2.66797 16.0004C2.66797 16.915 2.87583 17.8177 3.27585 18.6402C3.67586 19.4628 4.25758 20.1836 4.97704 20.7484C5.69651 21.3131 6.53491 21.707 7.42891 21.9002C8.32291 22.0934 9.24914 22.0809 10.1376 21.8637C10.4008 20.7916 10.9526 19.8121 11.7331 19.0313C12.5136 18.2506 13.4929 17.6986 14.565 17.435Z" fill="#005CF4"/>
<path d="M17.436 14.565C18.5078 14.3015 19.487 13.7496 20.2675 12.9691C21.0479 12.1887 21.5998 11.2095 21.8634 10.1377C20.7916 10.4013 19.8124 10.9532 19.032 11.7336C18.2515 12.5141 17.6996 13.4933 17.436 14.565Z" fill="#186EF9"/>
<path d="M17.436 17.4351C17.6994 18.5069 18.2512 19.4863 19.0317 20.2667C19.8122 21.0472 20.7915 21.5991 21.8634 21.8624C21.5998 20.7906 21.0479 19.8114 20.2675 19.031C19.487 18.2505 18.5078 17.6986 17.436 17.4351Z" fill="#0246F2"/>
<path d="M14.5651 14.565C14.3015 13.4933 13.7496 12.5141 12.9691 11.7336C12.1887 10.9532 11.2095 10.4013 10.1377 10.1377C10.4013 11.2095 10.9532 12.1887 11.7336 12.9691C12.5141 13.7496 13.4933 14.3015 14.5651 14.565Z" fill="#0046F8"/>
<path d="M14.5651 17.4351C13.4933 17.6986 12.5141 18.2505 11.7336 19.031C10.9532 19.8114 10.4013 20.7906 10.1377 21.8624C11.2095 21.5989 12.1887 21.047 12.9691 20.2665C13.7496 19.4861 14.3015 18.5069 14.5651 17.4351Z" fill="#0729F1"/>
<path d="M14.5651 14.565C15.5082 14.7959 16.4932 14.7959 17.4364 14.565C17.6999 13.4932 18.2518 12.514 19.0323 11.7335C19.8127 10.9531 20.7919 10.4012 21.8637 10.1376C22.0809 9.24913 22.0934 8.32291 21.9002 7.42891C21.707 6.53491 21.3131 5.69651 20.7484 4.97704C20.1836 4.25758 19.4628 3.67586 18.6402 3.27585C17.8177 2.87583 16.915 2.66797 16.0004 2.66797C15.0858 2.66797 14.1831 2.87583 13.3605 3.27585C12.538 3.67586 11.8171 4.25758 11.2524 4.97704C10.6876 5.69651 10.2938 6.53491 10.1006 7.42891C9.90736 8.32291 9.91984 9.24913 10.1371 10.1376C11.2091 10.4009 12.1885 10.9527 12.9691 11.7331C13.7497 12.5136 14.3017 13.493 14.5651 14.565Z" fill="#7ABDF7"/>
<path d="M17.4362 17.4352C16.493 17.2042 15.5081 17.2042 14.5649 17.4352C14.3014 18.507 13.7494 19.4862 12.969 20.2666C12.1885 21.047 11.2093 21.599 10.1376 21.8625C9.92033 22.751 9.90785 23.6772 10.1011 24.5712C10.2943 25.4652 10.6881 26.3036 11.2529 27.0231C11.8176 27.7425 12.5385 28.3243 13.361 28.7243C14.1836 29.1243 15.0862 29.3322 16.0009 29.3322C16.9155 29.3322 17.8182 29.1243 18.6407 28.7243C19.4633 28.3243 20.1841 27.7425 20.7489 27.0231C21.3136 26.3036 21.7075 25.4652 21.9007 24.5712C22.0939 23.6772 22.0814 22.751 21.8642 21.8625C20.7922 21.5993 19.8128 21.0475 19.0321 20.267C18.2515 19.4865 17.6996 18.5071 17.4362 17.4352Z" fill="#0D74F5"/>
<path d="M23.299 9.96398C22.8155 9.96391 22.3337 10.022 21.8641 10.137C21.6008 11.2088 21.049 12.1879 20.2687 12.9683C19.4883 13.7487 18.5091 14.3004 17.4374 14.5637C17.2064 15.5069 17.2064 16.4918 17.4374 17.435C18.5091 17.6984 19.4883 18.2503 20.2687 19.0308C21.049 19.8113 21.6008 20.7905 21.8641 21.8623C22.6931 22.0648 23.5557 22.0892 24.3949 21.9339C25.234 21.7786 26.0307 21.4471 26.7324 20.9612C27.434 20.4754 28.0247 19.8463 28.4654 19.1155C28.906 18.3846 29.1867 17.5686 29.2889 16.7213C29.3911 15.874 29.3124 15.0147 29.0581 14.2C28.8038 13.3854 28.3796 12.6339 27.8136 11.9952C27.2475 11.3565 26.5525 10.8451 25.7743 10.4948C24.9961 10.1444 24.1525 9.96303 23.299 9.96265V9.96398Z" fill="#4494F7"/>
<path d="M14.565 17.435C14.7959 16.4919 14.7959 15.5069 14.565 14.5638C13.4932 14.3005 12.5139 13.7487 11.7334 12.9683C10.953 12.188 10.4011 11.2088 10.1376 10.1371C9.24914 9.91984 8.32291 9.90736 7.42891 10.1006C6.53491 10.2938 5.69651 10.6876 4.97704 11.2524C4.25758 11.8171 3.67586 12.538 3.27585 13.3605C2.87583 14.1831 2.66797 15.0857 2.66797 16.0004C2.66797 16.915 2.87583 17.8177 3.27585 18.6402C3.67586 19.4628 4.25758 20.1836 4.97704 20.7484C5.69651 21.3131 6.53491 21.707 7.42891 21.9002C8.32291 22.0934 9.24914 22.0809 10.1376 21.8637C10.4008 20.7916 10.9526 19.8121 11.7331 19.0313C12.5136 18.2506 13.4929 17.6986 14.565 17.435Z" fill="#005CF4"/>
<path d="M17.436 14.565C18.5078 14.3015 19.487 13.7496 20.2675 12.9691C21.0479 12.1887 21.5998 11.2095 21.8634 10.1377C20.7916 10.4013 19.8124 10.9532 19.032 11.7336C18.2515 12.5141 17.6996 13.4933 17.436 14.565Z" fill="#186EF9"/>
<path d="M17.436 17.4351C17.6994 18.5069 18.2512 19.4863 19.0317 20.2667C19.8122 21.0472 20.7915 21.5991 21.8634 21.8624C21.5998 20.7906 21.0479 19.8114 20.2675 19.031C19.487 18.2505 18.5078 17.6986 17.436 17.4351Z" fill="#0246F2"/>
<path d="M14.5651 14.565C14.3015 13.4933 13.7496 12.5141 12.9691 11.7336C12.1887 10.9532 11.2095 10.4013 10.1377 10.1377C10.4013 11.2095 10.9532 12.1887 11.7336 12.9691C12.5141 13.7496 13.4933 14.3015 14.5651 14.565Z" fill="#0046F8"/>
<path d="M14.5651 17.4351C13.4933 17.6986 12.5141 18.2505 11.7336 19.031C10.9532 19.8114 10.4013 20.7906 10.1377 21.8624C11.2095 21.5989 12.1887 21.047 12.9691 20.2665C13.7496 19.4861 14.3015 18.5069 14.5651 17.4351Z" fill="#0729F1"/>
</svg>
